<?xml version="1.0" encoding="utf-8"?>
<!-- Generator: Adobe Illustrator 19.0.0, SVG Export Plug-In . SVG Version: 6.00 Build 0)  -->
<svg version="1.1" id="Capa_1" xmlns="http://www.w3.org/2000/svg" xmlns:xlink="http://www.w3.org/1999/xlink" x="0px" y="0px"
	 viewBox="-383 145 512 512" style="enable-background:new -383 145 512 512;" xml:space="preserve">
<g>
	<polygon points="129,145 -25.9,167.9 12.4,206.2 -17.2,235.7 38.3,291.2 67.8,261.6 106.1,299.9 	"/>
	<path d="M-84.5,443.4c0.2-0.2,0.4-0.5,0.7-0.7c0.2-0.2,0.5-0.4,0.7-0.7c11.3-11.3,17.6-26.4,17.6-42.5c0-16.1-6.3-31.1-17.6-42.5
		s-26.4-17.6-42.5-17.6c-16.1,0-31.1,6.3-42.5,17.6c-0.2,0.2-0.4,0.5-0.7,0.7c-0.2,0.2-0.5,0.4-0.7,0.7
		c-11.3,11.3-17.6,26.4-17.6,42.5c0,16.1,6.3,31.1,17.6,42.5C-158.1,454.8-143,461-127,461C-110.9,461-95.8,454.8-84.5,443.4z"/>
	<polygon points="-236.8,566.3 -292.3,510.8 -321.8,540.4 -360.1,502.1 -383,657 -228.1,634.1 -266.4,595.8 	"/>
	<path d="M-90.1,492.6c-13.1,6.4-27.7,9.8-42.3,9.8c0,0,0,0,0,0c-25.6,0-49.8-10-67.9-28.1c-29.1-29.1-36.4-73.4-18.3-110.2l2-4.1
		l-47.9-47.9l-4.3,6.7c-19.7,30.6-28.5,67.6-24.9,104c3.7,37,20.3,71.8,46.6,98.2c30.6,30.6,71.3,47.5,114.6,47.5c0,0,0,0,0,0
		c31.2,0,61.5-8.9,87.6-25.7l6.7-4.3l-47.9-47.9L-90.1,492.6z"/>
	<path d="M-7,281c-30.6-30.6-71.3-47.5-114.6-47.5c-31.2,0-61.5,8.9-87.6,25.7l-6.7,4.3l47.9,47.9l4.1-2c13.1-6.4,27.7-9.8,42.3-9.8
		c25.7,0,49.8,10,67.9,28.1c29.1,29.1,36.4,73.4,18.3,110.2l-2,4.1l47.9,47.9l4.3-6.7c19.7-30.6,28.6-67.6,24.9-104
		C35.9,342.2,19.3,307.3-7,281z"/>
</g>
</svg>
