<?xml version="1.0" encoding="utf-8"?>
<!-- Generator: Adobe Illustrator 19.0.0, SVG Export Plug-In . SVG Version: 6.00 Build 0)  -->
<svg version="1.1" id="Layer_1" xmlns="http://www.w3.org/2000/svg" xmlns:xlink="http://www.w3.org/1999/xlink" x="0px" y="0px"
	 viewBox="-383 145 512 512" style="enable-background:new -383 145 512 512;" xml:space="preserve">
<path d="M123.1,622.9l-89.1-89.1c20-26,31.9-58.5,31.9-93.8c0-84.9-69.1-154-154-154s-154,69.1-154,154s69.1,154,154,154
	c35.3,0,67.8-11.9,93.8-31.9l89.1,89.1c3.9,3.9,9,5.9,14.1,5.9s10.2-2,14.1-5.9C131,643.3,131,630.7,123.1,622.9z M-202,440
	c0-62.9,51.1-114,114-114S26,377.1,26,440S-25.1,554-88,554S-202,502.9-202,440z M-70.6,371.2c-3.8-4.6-9.4-7.2-15.4-7.2
	s-11.6,2.6-15.4,7.2c-0.4,0.5-10.8,12.9-21.2,28.3c-21,31-23.5,45.9-23.5,54.5c0,33.1,26.9,60,60,60s60-26.9,60-60
	c0-8.6-2.4-23.5-23.5-54.5C-59.9,384.1-70.2,371.7-70.6,371.2z M-86,474c-11,0-20-9-20-20c0-0.3,0.7-8.7,16.7-32.2
	c1.1-1.6,2.2-3.3,3.3-4.8c1.1,1.6,2.2,3.2,3.3,4.8C-66.5,445.6-66,453.9-66,454C-66,465-75,474-86,474z M-195.7,622.3
	c-16.7,22-42.1,34.7-69.8,34.7c-48.2,0-87.5-39.3-87.5-87.5V185h-10c-11,0-20-9-20-20s9-20,20-20h195c11,0,20,9,20,20s-9,20-20,20
	h-10v50c0,11-9,20-20,20s-20-9-20-20v-50h-95v110h55c11,0,20,9,20,20s-9,20-20,20h-55v234.5c0,26.2,21.3,47.5,47.5,47.5
	c15,0,28.8-6.9,37.9-18.8c6.7-8.8,19.2-10.5,28-3.9C-190.8,601-189.1,613.5-195.7,622.3z"/>
</svg>
