<?xml version="1.0" encoding="utf-8"?>
<!-- Generator: Adobe Illustrator 19.0.0, SVG Export Plug-In . SVG Version: 6.00 Build 0)  -->
<svg version="1.1" id="Capa_1" xmlns="http://www.w3.org/2000/svg" xmlns:xlink="http://www.w3.org/1999/xlink" x="0px" y="0px"
	 viewBox="-383 145 512 512" style="enable-background:new -383 145 512 512;" xml:space="preserve">
<g>
	<g>
		<path d="M-306.2,390.1h-57.6c-10.6,0-19.2,8.6-19.2,19.2v220.5c0,10.6,8.6,19.2,19.2,19.2h57.6c10.6,0,19.2-8.6,19.2-19.2V409.3
			C-287,398.7-295.6,390.1-306.2,390.1z"/>
		<path d="M-167.6,307.4h-57.6c-10.6,0-19.2,8.6-19.2,19.2v303.3c0,10.6,8.6,19.2,19.2,19.2h57.6c10.6,0,19.2-8.6,19.2-19.2V326.6
			C-148.4,316-157,307.4-167.6,307.4z"/>
		<path d="M-29,224.7h-57.6c-10.6,0-19.2,8.6-19.2,19.2v386c0,10.6,8.6,19.2,19.2,19.2H-29c10.6,0,19.2-8.6,19.2-19.2v-386
			C-9.8,233.2-18.4,224.7-29,224.7z"/>
		<path d="M109.8,153H52.2c-10.6,0-19.2,8.6-19.2,19.2v457.7c0,10.6,8.6,19.2,19.2,19.2h57.6c10.6,0,19.2-8.6,19.2-19.2V172.2
			C129,161.6,120.4,153,109.8,153z"/>
	</g>
</g>
</svg>
